<?xml version="1.0" encoding="utf-8"?>
<!-- Generator: Adobe Illustrator 22.0.1, SVG Export Plug-In . SVG Version: 6.00 Build 0)  -->
<svg version="1.1" id="Layer_1" xmlns="http://www.w3.org/2000/svg" xmlns:xlink="http://www.w3.org/1999/xlink" x="0px" y="0px"
	 viewBox="0 0 100 100" style="enable-background:new 0 0 100 100;" xml:space="preserve">
<style type="text/css">
	.st0{fill:#0C1B3C;}
</style>
<path class="st0" d="M-0.8,100c0,0,17.8-22.4,17.8-36c0,0,7.9,36.4,1,36.4s-18.8,0-18.8,0V100z"/>
<path class="st0" d="M9.4,100c0,0,17.8-22.4,17.8-36c0,0,7.9,36.4,1,36.4s-18.8,0-18.8,0V100z"/>
<path class="st0" d="M19.5,100c0,0,17.8-22.4,17.8-36c0,0,7.9,36.4,1,36.4s-18.8,0-18.8,0V100z"/>
<path class="st0" d="M29.6,100c0,0,17.8-22.4,17.8-36c0,0,7.9,36.4,1,36.4s-18.8,0-18.8,0V100z"/>
<path class="st0" d="M39.8,100c0,0,17.8-22.4,17.8-36c0,0,7.9,36.4,1,36.4s-18.8,0-18.8,0V100z"/>
<path class="st0" d="M49.9,100c0,0,17.8-22.4,17.8-36c0,0,7.9,36.4,1,36.4s-18.8,0-18.8,0V100z"/>
<path class="st0" d="M60,100c0,0,17.8-22.4,17.8-36c0,0,7.9,36.4,1,36.4s-18.8,0-18.8,0V100z"/>
<path class="st0" d="M70.2,100c0,0,17.8-22.4,17.8-36c0,0,7.9,36.4,1,36.4c-6.9,0-18.8,0-18.8,0V100z"/>
<path class="st0" d="M80.3,100c0,0,17.8-22.4,17.8-36c0,0,7.9,36.4,1,36.4s-18.8,0-18.8,0V100z"/>
</svg>
