<?xml version="1.0" encoding="utf-8"?>
<!-- Generator: Adobe Illustrator 22.0.1, SVG Export Plug-In . SVG Version: 6.00 Build 0)  -->
<svg version="1.1" id="Layer_1" xmlns="http://www.w3.org/2000/svg" xmlns:xlink="http://www.w3.org/1999/xlink" x="0px" y="0px"
	 viewBox="0 0 100 100" style="enable-background:new 0 0 100 100;" xml:space="preserve">
<style type="text/css">
	.st0{fill:#0C1B3C;}
</style>
<path class="st0" d="M-0.8,100c0,0,17.8-22.4,17.8-36c0,0,7.9,36.4,1,36.4s-18.8,0-18.8,0S-0.8,100-0.8,100z"/>
<path class="st0" d="M9.4,100c0,0,17.8-22.4,17.8-36c0,0,7.9,36.4,1,36.4s-18.8,0-18.8,0V100z"/>
<path class="st0" d="M19.5,100c0,0,17.8-22.4,17.8-36c0,0,7.9,36.4,1,36.4s-18.8,0-18.8,0V100z"/>
<path class="st0" d="M29.6,100c0,0,17.8-22.4,17.8-36c0,0,7.9,36.4,1,36.4s-18.8,0-18.8,0S29.6,100,29.6,100z"/>
<path class="st0" d="M39.8,100c0,0,17.8-22.4,17.8-36c0,0,7.9,36.4,1,36.4s-18.8,0-18.8,0V100z"/>
<path class="st0" d="M49.9,100c0,0,17.8-22.4,17.8-36c0,0,7.9,36.4,1,36.4s-18.8,0-18.8,0S49.9,100,49.9,100z"/>
<path class="st0" d="M60,100c0,0,17.8-22.4,17.8-36c0,0,7.9,36.4,1,36.4s-18.8,0-18.8,0S60,100,60,100z"/>
<path class="st0" d="M70.2,100c0,0,17.8-22.4,17.8-36c0,0,7.9,36.4,1,36.4s-18.8,0-18.8,0V100z"/>
<path class="st0" d="M80.3,100c0,0,17.8-22.4,17.8-36c0,0,7.9,36.4,1,36.4s-18.8,0-18.8,0V100z"/>
<g>
	<path class="st0" d="M26.3,40c0,0-18.6,2.8-18.6,18.6l-6.6,6.9L9,63.2c0,0,15.3,7.1,23.4-1s5.9-14.9,5.9-14.9S35.2,40,26.3,40z"/>
	<path class="st0" d="M26.3,40c0,0,8-2.3,8-3.7s6.2-5.4,8.3-3.3c2.1,2.1,3.2,4.9,3.2,4.9l-4-1.7c0,0-3.4,6-8,6"/>
	<rect x="13.1" y="64" class="st0" width="1.6" height="22.3"/>
	<rect x="16.5" y="64" class="st0" width="1.6" height="22.3"/>
</g>
<g>
	<path class="st0" d="M80.7,44.7c0,0-16.7,2.5-16.7,16.7l-5.9,6.2l7.1-2c0,0,13.7,6.4,21-0.9c7.3-7.3,5.3-13.4,5.3-13.4
		S88.8,44.7,80.7,44.7z"/>
	<path class="st0" d="M80.7,44.7c0,0,7.2-2,7.2-3.3s5.6-4.9,7.5-3c1.9,1.9,2.9,4.4,2.9,4.4l-3.6-1.5c0,0-3,5.4-7.2,5.4"/>
	<rect x="68.8" y="66.3" class="st0" width="1.5" height="20"/>
	<rect x="71.9" y="66.3" class="st0" width="1.5" height="20"/>
</g>
<g>
	<path class="st0" d="M48.9,53.6c0,0-13.1,1.9-13.1,13.1l-4.6,4.9l5.5-1.6c0,0,10.8,5,16.5-0.7s4.2-10.5,4.2-10.5
		S55.2,53.6,48.9,53.6z"/>
	<path class="st0" d="M48.9,53.6c0,0,5.7-1.6,5.7-2.6c0-1,4.4-3.8,5.9-2.3c1.5,1.5,2.3,3.5,2.3,3.5L59.9,51c0,0-2.4,4.3-5.6,4.3"/>
	<rect x="39.5" y="70.6" class="st0" width="1.2" height="15.7"/>
	<rect x="42" y="70.6" class="st0" width="1.2" height="15.7"/>
</g>
</svg>
