<?xml version="1.0" encoding="utf-8"?>
<!-- Generator: Adobe Illustrator 22.0.1, SVG Export Plug-In . SVG Version: 6.00 Build 0)  -->
<svg version="1.1" id="Layer_1" xmlns="http://www.w3.org/2000/svg" xmlns:xlink="http://www.w3.org/1999/xlink" x="0px" y="0px"
	 viewBox="0 0 100 100" style="enable-background:new 0 0 100 100;" xml:space="preserve">
<style type="text/css">
	.st0{fill:#0C1B3C;}
</style>
<path class="st0" d="M-0.8,100c0,0,17.8-22.4,17.8-36c0,0,7.9,36.4,1,36.4s-18.8,0-18.8,0S-0.8,100-0.8,100z"/>
<path class="st0" d="M9.4,100c0,0,17.8-22.4,17.8-36c0,0,7.9,36.4,1,36.4s-18.8,0-18.8,0V100z"/>
<path class="st0" d="M19.5,100c0,0,17.8-22.4,17.8-36c0,0,7.9,36.4,1,36.4s-18.8,0-18.8,0V100z"/>
<path class="st0" d="M29.6,100c0,0,17.8-22.4,17.8-36c0,0,7.9,36.4,1,36.4s-18.8,0-18.8,0S29.6,100,29.6,100z"/>
<path class="st0" d="M39.8,100c0,0,17.8-22.4,17.8-36c0,0,7.9,36.4,1,36.4s-18.8,0-18.8,0V100z"/>
<path class="st0" d="M49.9,100c0,0,17.8-22.4,17.8-36c0,0,7.9,36.4,1,36.4s-18.8,0-18.8,0S49.9,100,49.9,100z"/>
<path class="st0" d="M60,100c0,0,17.8-22.4,17.8-36c0,0,7.9,36.4,1,36.4s-18.8,0-18.8,0S60,100,60,100z"/>
<path class="st0" d="M70.2,100c0,0,17.8-22.4,17.8-36c0,0,7.9,36.4,1,36.4s-18.8,0-18.8,0V100z"/>
<path class="st0" d="M80.3,100c0,0,17.8-22.4,17.8-36c0,0,7.9,36.4,1,36.4s-18.8,0-18.8,0V100z"/>
<path class="st0" d="M13.5,91.7h13c0,0,8-33.9,8-39c0,0-8.5,3.6-10.5,1.6C24,54.3,16.3,91.7,13.5,91.7z"/>
<path class="st0" d="M24,54.3c0,0-4.4-1.4-4.4-2.8c0-1.5,1.4-2.3,1.4-2.3s-0.1-1.9-1.4-1.9s1.3-2.8,2.2-1.9s-0.8-3.1-1.5-3.1
	s3.7-2.6,3.7-1.1c0,1.5,2.1-0.5,2.1-0.5s2.6,0.2,2.6,0.9c0,0.7,2.4,0.4,2.4,0.4s2.9-0.3,2.1,0.5c-0.9,0.9-0.3,2.4,1.4,2.4
	s2.3,2.5,1.2,2.5s0.7,1.8,1.8,1.8c1.1,0-0.6,1.2-1.8,2.3C34.6,52.8,27.7,58,24,54.3z"/>
<path class="st0" d="M66.5,91.7h13c0,0,8-33.9,8-39c0,0-8.5,3.6-10.5,1.6C77,54.3,69.3,91.7,66.5,91.7z"/>
<path id="XMLID_1_" class="st0" d="M77.1,55.5c0,0-7.3-2.2-7.3-4.7c0-2.4,2.3-3.8,2.3-3.8s-0.2-3.1-2.3-3.1c-2.2,0,2.2-4.5,3.6-3.1
	c1.4,1.4-1.4-5.1-2.5-5.1s6.1-4.2,6.1-1.8c0,2.4,3.4-0.8,3.4-0.8s4.2,0.3,4.2,1.4c0,1.1,3.9,0.7,3.9,0.7s4.8-0.6,3.4,0.9
	c-1.4,1.4-0.4,4,2.2,4c2.7,0,3.8,4.2,2,4.2c-1.8,0,1.2,2.9,2.9,2.9s-1,1.9-2.9,3.8C94.5,52.9,83.1,61.5,77.1,55.5z"/>
<path class="st0" d="M32.4,91.7h18.1c0,0,11.1-47.1,11.1-54.2c0,0-11.8,5-14.6,2.3C47,39.8,36.2,91.7,32.4,91.7z"/>
<path id="XMLID_2_" class="st0" d="M47.1,41.4c0,0-10.1-3.1-10.1-6.5s3.3-5.2,3.3-5.2S40,25.3,37,25.3S40,19,42,21
	c2,2-1.9-7.1-3.4-7.1c-1.5,0,8.5-5.9,8.5-2.5s4.8-1.1,4.8-1.1s5.9,0.4,5.9,2s5.5,0.9,5.5,0.9s6.7-0.8,4.7,1.2c-2,2-0.6,5.6,3.1,5.6
	c3.7,0,5.2,5.8,2.8,5.8s1.7,4.1,4.1,4.1s-1.5,2.6-4.1,5.3S55.4,49.7,47.1,41.4z"/>
</svg>
